PathFileType	4	(X/Y/Z)	Patient4_TMGait_0pt6_01_right_11.trc.trc
DataRate	CameraRate	NumFrames	NumMarkers	Units	OrigDataRate	OrigDataStartFrame	OrigNumFrames
84.848484848485	84.848484848485	5	33	mm	84.848484848485	53	       141
Frame#	Time	Sacral			L.Shoulder			Chest			R.Shoulder			Neck			R.ASIS			L.ASIS			R.Thigh.Superior			R.Thigh.Lateral			R.Thigh.Inferior			R.Patella			L.Thigh.Superior			L.Thigh.Lateral			L.Thigh.Inferior			L.Patella			L.Shank.Superior			L.Shank.Lateral			L.Shank.Inferior			R.Shank.Superior			R.Shank.Lateral			R.Shank.Inferior			R.Heel			R.Midfoot.Superior			R.Midfoot.Lateral			R.Toe			L.Heel			L.Midfoot.Lateral			L.Midfoot.Superior			L.Toe			L.Elbow			L.Wrist			R.Elbow			R.Wrist			
		X1	Y1	Z1	X2	Y2	Z2	X3	Y3	Z3	X4	Y4	Z4	X5	Y5	Z5	X6	Y6	Z6	X7	Y7	Z7	X8	Y8	Z8	X9	Y9	Z9	X10	Y10	Z10	X11	Y11	Z11	X12	Y12	Z12	X13	Y13	Z13	X14	Y14	Z14	X15	Y15	Z15	X16	Y16	Z16	X17	Y17	Z17	X18	Y18	Z18	X19	Y19	Z19	X20	Y20	Z20	X21	Y21	Z21	X22	Y22	Z22	X23	Y23	Z23	X24	Y24	Z24	X25	Y25	Z25	X26	Y26	Z26	X27	Y27	Z27	X28	Y28	Z28	X29	Y29	Z29	X30	Y30	Z30	X31	Y31	Z31	X32	Y32	Z32	X33	Y33	Z33	

53	13.392857142857	647.127063776592	1006.741023510578	513.549999277172	788.950183706686	1440.205028774605	323.737620359430	909.187713855157	1374.363813860676	473.733127575601	840.192551618941	1440.723928323541	655.668944560282	785.150795554236	1498.917942802804	480.134238864916	882.420481510928	946.679165613376	614.435548263981	850.314122991580	969.542117336899	342.253578094459	909.381337839432	739.605663952543	582.141378927760	822.494986007841	635.161825479145	644.919701139928	890.028667773736	579.815428153476	560.883485069336	883.933704759609	494.141754314261	564.572361841513	945.239849180645	797.860224869743	378.152688994064	913.070928963879	666.777451252706	300.693462471001	1019.056299813295	611.975577860477	363.210901029706	1041.317077767626	525.730870018270	356.210933422793	989.280238327953	450.435406248162	350.737313715898	862.220820610521	375.181417409789	303.415215799750	882.544628567030	247.797067642405	360.867223295045	857.925009646292	404.754106914543	571.338802220156	788.876502342521	299.328927971662	631.184044829980	830.979635144646	206.637550899926	566.157826286956	697.256000759324	41.258822507349	533.682444085855	868.113707072390	96.963354237569	569.495542747570	780.490759228712	36.090077369325	608.797682299914	988.148917501901	47.513294068877	597.529104339236	715.118030738172	135.912564112514	403.065317143079	780.675380844683	107.864894573350	320.979205725831	880.008045326340	144.174001264253	340.111937731725	984.218099148166	58.159644044967	309.288013132362	771.428354569629	1079.311797812832	221.752567619442	873.843071112153	839.345125693026	217.567666209496	925.978067205337	1100.860451929429	775.367717919806	1121.921218117283	929.009350974544	763.911817074999	
54	13.404642857143	646.825978721267	1007.211998806063	514.800424559332	788.147601064716	1440.321744193140	324.482096823188	909.179579822385	1374.469373433682	473.809713684528	841.327885404450	1441.125115379810	656.066350170489	785.029663042386	1499.025261248815	480.907752244382	882.316234433018	946.386045206919	614.552401907151	849.226211634990	969.987244364886	342.557140432075	907.051420046818	738.787968706132	581.570462682323	819.565259919420	635.092896379851	645.160490461472	885.756978874071	579.109971376177	560.670858076911	878.868969627085	493.612314311492	564.465388297499	944.585679823580	799.067202232839	378.561228282740	912.826490981408	667.631504140281	300.993816374935	1018.535222683514	613.310813418808	363.960164404925	1042.114884185950	528.749449095729	357.001254255334	993.751155680369	452.583588743781	350.933174225021	871.783818415053	370.213866911846	302.646713204200	899.530567405956	243.812573839886	359.840664695183	852.414648556424	404.379119180812	571.261484599509	783.150843718060	299.177736692876	631.303305521788	824.541475610163	206.397126161353	566.005774009067	690.119288105559	41.239416886577	533.679734577723	860.997644518330	96.908269470649	569.395882200075	773.354500430616	36.081967581495	608.774476432172	980.998862591670	47.479648950821	597.496033847909	739.145724440030	122.108656481998	401.066441418219	806.502519501368	98.078323063384	319.232402883660	903.496558350853	139.882818063189	338.861417495711	1012.529602083179	59.995321413293	308.438524736386	764.483801273947	1079.712454523431	222.769774956321	853.572538352927	834.718220940596	219.122666977121	934.324589956223	1103.500746452961	775.378439467181	1138.607383158328	941.902512696683	761.669550925339	
55	13.416428571429	646.644769878189	1007.562711025200	515.953213147464	787.482242555004	1440.335754551975	325.137264259237	909.284511734511	1374.423757824967	473.789475880211	842.561023790160	1441.394137305229	656.347743926204	785.014596971670	1499.004244943009	481.552975218461	882.278717430852	946.013121146993	614.598295313409	848.303128103411	970.240392925650	342.750809656040	904.857316615625	737.922502807560	581.092865990276	816.776734899764	634.941669096137	645.401203921831	881.693964785658	578.358950980451	560.506852472012	874.019194863504	493.022346425388	564.396344092981	943.684427815821	799.635242111254	378.849670690683	911.988047657020	667.932496567909	301.204584307542	1017.185150538626	613.820023806525	364.840707172709	1041.993438706237	531.162071884359	357.935523951086	997.407830606863	454.408423259341	351.241438675821	881.229159697505	365.044131972615	301.739312945073	916.322992326895	240.142322082816	358.915263510157	847.082374201104	403.962572069788	571.216011215901	777.534175381196	299.005701494276	631.435976653585	818.156884711364	206.121483644994	565.867651225170	682.983296069276	41.225769799499	533.682372418888	853.886385212386	96.849597538842	569.297598894466	766.217459228516	36.063237899198	608.740776678013	973.850870550428	47.428596373419	597.461555233175	763.593556776720	108.878425700019	398.867551795419	832.787425852873	88.973014796232	317.515577799037	927.027039389771	136.235783244980	337.853806733719	1040.683255616589	62.804950877133	308.257233241605	757.742546577447	1080.232139439975	223.444240475416	833.924436895256	831.165131152120	220.621404525722	942.123155737038	1106.073750148337	775.334551359434	1154.168131333072	955.122141965566	759.313611971118	
56	13.428214285714	646.603052689121	1007.776066753698	517.013122527656	786.957952673632	1440.253901731797	325.698445327172	909.493721870655	1374.231072344335	473.677540724006	843.866641136767	1441.520693745212	656.517885281729	785.112849197150	1498.860399138557	482.075666314608	882.322686325348	945.570275172663	614.573615824541	847.527133861250	970.294688240223	342.837845025347	902.834533138521	737.012331608877	580.727868087905	814.145743558320	634.702933640499	645.628485711289	877.870301337263	577.561538681991	560.389299976179	869.412600743922	492.367505842649	564.349609108482	942.531833330283	799.567932850753	379.024573500774	910.616261669051	667.723701353273	301.286502734085	1015.094381043027	613.564351411859	365.796533919193	1041.055042043734	533.003437374068	358.956475039519	1000.300843285601	455.943251982918	351.634606724908	890.515268707844	359.850056668036	300.717671250550	932.731992212956	236.962366789010	358.141145568639	841.952582010140	403.499277875423	571.190054383187	772.045247949150	298.819543182861	631.575195570085	811.838776308298	205.810595885197	565.740434079107	675.848665657314	41.222481449421	533.692803824627	846.782192220011	96.786565827429	569.202897726980	759.080911398409	36.036866739276	608.696997654441	966.710833045978	47.350063679722	597.429287485983	788.136769149764	96.599083091658	396.583752225897	859.180237502018	80.836595545562	315.938893580285	950.292398998851	133.416833690155	337.159034167624	1068.280052374053	66.665951319097	308.817117822086	751.214023376364	1080.864202195884	223.818279084136	815.062352575528	828.600615121792	222.075653403354	949.402657879523	1108.531792568679	775.230055870597	1168.570364584092	968.535871027309	756.860616760690	
57	13.440000000000	646.712470626466	1007.842205874837	517.983953302746	786.577060110619	1440.085386175358	326.160326968846	909.796809472340	1373.903544021575	473.481660870277	845.215635665536	1441.503613651607	656.582717616310	785.325385136388	1498.604761060654	482.481310871494	882.464388166786	945.067587358433	614.477335153163	846.881039038696	970.156116646502	342.819240673056	901.007596569796	736.061310397698	580.470094966434	811.685355555119	634.376431778060	645.824484297988	874.302470163376	576.718368448461	560.302734941776	865.063300599930	491.645801871210	564.303044020513	941.134822078580	798.894990872146	379.087981061416	908.785198690784	667.066774308213	301.204990801905	1012.379339667914	612.636334833272	366.752715469541	1039.416356198651	534.322292919588	359.993992689500	1002.492168666280	457.221261439467	352.068240696488	899.556264000181	354.789722595668	299.629374384096	948.556406250222	234.394610678026	357.552342353324	837.037797393350	402.986151382425	571.166062765965	766.694962501295	298.627480083881	631.712167513129	805.595667755564	205.466391480711	565.619437249131	668.716522219907	41.234202998036	533.712308663242	839.687980111449	96.718472099067	569.114362116079	751.946562181362	36.006739800347	608.644258943349	959.584108629979	47.234674201173	597.402867066072	812.415057080850	85.568384098046	394.362457873910	885.277271310805	73.862951051941	314.614853570683	972.965898225542	131.525542343232	336.813322829421	1094.914102558683	71.543797664307	310.106550616112	744.899630516173	1081.600089976901	223.943689564604	797.108332078740	826.917780229838	223.492106610013	956.190836385414	1110.838617977989	775.052258235642	1181.794994802930	982.014668274308	754.324332403320	
